<svg width="25" height="25" viewBox="0 0 25 25" fill="none" xmlns="http://www.w3.org/2000/svg">
<path d="M2.26116 2.30308C3.19212 1.37211 5.0982 1.03038 7.96031 1.98435C10.7286 2.90716 13.9527 4.92823 16.9068 7.88246C19.861 10.8365 21.8821 14.0605 22.8048 16.8289C23.759 19.6911 23.4172 21.5972 22.4861 22.5281C21.5552 23.4591 19.649 23.8009 16.7869 22.8468C14.0187 21.9241 10.7946 19.9029 7.84044 16.9488C4.88628 13.9946 2.86517 10.7707 1.94241 8.00227C0.988381 5.14016 1.33017 3.23414 2.26116 2.30308Z" stroke="#18181B" stroke-width="2.75"/>
<path d="M1.28893 23.5004C1.93708 22.8522 2.58522 22.2039 3.23337 21.5557C2.89219 21.2457 2.68347 20.3976 2.76415 19.4898C2.81717 18.7747 2.99605 18.0166 3.24685 17.2637C4.31096 14.1589 6.39813 11.2822 8.81271 8.85476C11.2402 6.44009 14.1169 4.35286 17.2217 3.28879C18.8726 2.69331 20.9146 2.59824 21.5138 3.27531C22.1911 3.87477 22.096 5.91649 21.5004 7.5674C20.4364 10.6723 18.3491 13.549 15.9345 15.9765C13.507 18.3911 10.6303 20.4783 7.52549 21.5423C6.77253 21.7932 6.01445 21.9721 5.29937 22.0251C4.39157 22.1058 3.54357 21.8971 3.23347 21.5558C2.58526 22.204 1.93704 22.8521 1.28883 23.5003C2.6104 24.7615 4.21616 24.8452 5.50118 24.7677C6.53308 24.6893 7.48542 24.4526 8.39518 24.1512C12.1222 22.8606 15.2073 20.5624 17.8791 17.921C20.5204 15.2493 22.8187 12.1642 24.1093 8.43706C24.6774 6.42574 25.5661 3.85818 23.4583 1.3308C20.9307 -0.776989 18.3636 0.11197 16.3521 0.679902C12.625 1.97054 9.5399 4.26881 6.86817 6.91021C4.2268 9.58192 1.92866 12.667 0.637972 16.394C0.336578 17.3038 0.0999957 18.2561 0.0215679 19.288C-0.0558572 20.573 0.0276867 22.1787 1.28893 23.5004ZM3.23337 21.5557L1.28893 23.5004L3.23347 21.5558L3.23337 21.5557Z" fill="#18181B"/>
<path d="M16.6163 16.6583C18.9594 14.3151 18.9594 10.5162 16.6163 8.17304C14.2731 5.82981 10.4741 5.82981 8.13102 8.17304C5.78787 10.5162 5.78787 14.3151 8.13102 16.6583C10.4741 19.0014 14.2731 19.0014 16.6163 16.6583Z" stroke="#18181B" stroke-width="2.75"/>
</svg>
