<svg width="39" height="12" viewBox="0 0 39 12" fill="none" xmlns="http://www.w3.org/2000/svg">
<path d="M15.724 10V2.836H13.132V1.48H19.864V2.836H17.284V10H15.724ZM21.6241 10.144C20.9521 10.144 20.4121 9.992 20.0041 9.688C19.5961 9.376 19.3921 8.944 19.3921 8.392C19.3921 7.84 19.5641 7.408 19.9081 7.096C20.2521 6.784 20.7761 6.56 21.4801 6.424L23.6041 6.004C23.6041 5.548 23.5001 5.208 23.2921 4.984C23.0841 4.752 22.7761 4.636 22.3681 4.636C22.0001 4.636 21.7081 4.724 21.4921 4.9C21.2841 5.068 21.1401 5.312 21.0601 5.632L19.5001 5.56C19.6281 4.88 19.9401 4.36 20.4361 4C20.9321 3.632 21.5761 3.448 22.3681 3.448C23.2801 3.448 23.9681 3.68 24.4321 4.144C24.9041 4.6 25.1401 5.256 25.1401 6.112V8.44C25.1401 8.608 25.1681 8.724 25.2241 8.788C25.2881 8.852 25.3801 8.884 25.5001 8.884H25.7041V10C25.6561 10.016 25.5761 10.028 25.4641 10.036C25.3601 10.044 25.2521 10.048 25.1401 10.048C24.8761 10.048 24.6401 10.008 24.4321 9.928C24.2241 9.84 24.0641 9.692 23.9521 9.484C23.8401 9.268 23.7841 8.976 23.7841 8.608L23.9161 8.704C23.8521 8.984 23.7121 9.236 23.4961 9.46C23.2881 9.676 23.0241 9.844 22.7041 9.964C22.3841 10.084 22.0241 10.144 21.6241 10.144ZM21.9361 9.028C22.2801 9.028 22.5761 8.96 22.8241 8.824C23.0721 8.688 23.2641 8.5 23.4001 8.26C23.5361 8.02 23.6041 7.736 23.6041 7.408V7.048L21.9481 7.384C21.6041 7.456 21.3561 7.564 21.2041 7.708C21.0601 7.844 20.9881 8.024 20.9881 8.248C20.9881 8.496 21.0681 8.688 21.2281 8.824C21.3961 8.96 21.6321 9.028 21.9361 9.028ZM27.9038 10C27.4398 10 27.0678 9.88 26.7878 9.64C26.5078 9.4 26.3678 9.016 26.3678 8.488V1.48H27.9038V8.332C27.9038 8.492 27.9438 8.612 28.0238 8.692C28.1118 8.772 28.2318 8.812 28.3838 8.812H28.8518V10H27.9038ZM29.5966 10V3.592H31.1326V10H29.5966ZM29.5726 2.74V1.372H31.1686V2.74H29.5726ZM35.246 10.144C34.614 10.144 34.058 10.008 33.578 9.736C33.106 9.456 32.738 9.064 32.474 8.56C32.218 8.056 32.09 7.468 32.09 6.796C32.09 6.116 32.218 5.528 32.474 5.032C32.738 4.528 33.106 4.14 33.578 3.868C34.058 3.588 34.614 3.448 35.246 3.448C35.878 3.448 36.43 3.588 36.902 3.868C37.374 4.14 37.738 4.528 37.994 5.032C38.258 5.528 38.39 6.116 38.39 6.796C38.39 7.468 38.258 8.056 37.994 8.56C37.738 9.064 37.374 9.456 36.902 9.736C36.43 10.008 35.878 10.144 35.246 10.144ZM35.246 8.896C35.742 8.896 36.122 8.712 36.386 8.344C36.658 7.976 36.794 7.46 36.794 6.796C36.794 6.14 36.658 5.628 36.386 5.26C36.122 4.884 35.742 4.696 35.246 4.696C34.75 4.696 34.366 4.884 34.094 5.26C33.822 5.628 33.686 6.14 33.686 6.796C33.686 7.46 33.822 7.976 34.094 8.344C34.366 8.712 34.75 8.896 35.246 8.896Z" fill="#0F172B"/>
<circle cx="8.5" cy="8.5" r="2.5" fill="#00BD7D"/>
<circle cx="2.5" cy="8.5" r="2.5" fill="#00BD7D"/>
<circle cx="5.5" cy="3.5" r="2.5" fill="#00BD7D"/>
</svg>
